<svg width="160" height="37" viewBox="0 0 160 37" fill="none" xmlns="http://www.w3.org/2000/svg">
<rect x="1.5" y="1.5" width="157" height="34" rx="3.5" stroke="#030712" stroke-width="3"/>
<path d="M10.517 27V9.54545H17.4034C18.7273 9.54545 19.8551 9.7983 20.7869 10.304C21.7188 10.804 22.429 11.5 22.9176 12.392C23.4119 13.2784 23.6591 14.3011 23.6591 15.4602C23.6591 16.6193 23.4091 17.642 22.9091 18.5284C22.4091 19.4148 21.6847 20.1051 20.7358 20.5994C19.7926 21.0937 18.6506 21.3409 17.3097 21.3409H12.9205V18.3835H16.7131C17.4233 18.3835 18.0085 18.2614 18.4688 18.017C18.9347 17.767 19.2813 17.4233 19.5085 16.9858C19.7415 16.5426 19.858 16.0341 19.858 15.4602C19.858 14.8807 19.7415 14.375 19.5085 13.9432C19.2813 13.5057 18.9347 13.1676 18.4688 12.929C18.0028 12.6847 17.4119 12.5625 16.696 12.5625H14.2074V27H10.517ZM29.6561 27V9.54545H41.4175V12.5881H33.3464V16.7472H40.8124V19.7898H33.3464V23.9574H41.4516V27H29.6561ZM47.2866 12.5881V9.54545H61.6219V12.5881H56.2781V27H52.6304V12.5881H47.2866Z" fill="#EF4444"/>
<path d="M70.517 27V9.54545H77.5057C78.7898 9.54545 79.8608 9.7358 80.7188 10.1165C81.5767 10.4972 82.2216 11.0256 82.6534 11.7017C83.0852 12.3722 83.3011 13.1449 83.3011 14.0199C83.3011 14.7017 83.1648 15.3011 82.892 15.8182C82.6193 16.3295 82.2443 16.75 81.767 17.0795C81.2955 17.4034 80.7557 17.6335 80.1477 17.7699V17.9403C80.8125 17.9687 81.4347 18.1562 82.0142 18.5028C82.5994 18.8494 83.0739 19.3352 83.4375 19.9602C83.8011 20.5795 83.983 21.3182 83.983 22.1761C83.983 23.1023 83.7528 23.929 83.2926 24.6562C82.8381 25.3778 82.1648 25.9489 81.2727 26.3693C80.3807 26.7898 79.2813 27 77.9744 27H70.517ZM74.2074 23.983H77.2159C78.2443 23.983 78.9943 23.7869 79.4659 23.3949C79.9375 22.9972 80.1733 22.4687 80.1733 21.8097C80.1733 21.3267 80.0568 20.9006 79.8239 20.5312C79.5909 20.1619 79.2585 19.8722 78.8267 19.6619C78.4006 19.4517 77.892 19.3466 77.3011 19.3466H74.2074V23.983ZM74.2074 16.8494H76.9432C77.4489 16.8494 77.8977 16.7614 78.2898 16.5852C78.6875 16.4034 79 16.1477 79.2273 15.8182C79.4602 15.4886 79.5767 15.0938 79.5767 14.6335C79.5767 14.0028 79.3523 13.4943 78.9034 13.108C78.4602 12.7216 77.8295 12.5284 77.0114 12.5284H74.2074V16.8494ZM86.3161 27V13.9091H89.8359V16.1932H89.9723C90.2109 15.3807 90.6115 14.767 91.174 14.3523C91.7365 13.9318 92.3842 13.7216 93.1172 13.7216C93.299 13.7216 93.495 13.733 93.7053 13.7557C93.9155 13.7784 94.1001 13.8097 94.2592 13.8494V17.071C94.0888 17.0199 93.853 16.9744 93.5518 16.9347C93.2507 16.8949 92.9751 16.875 92.7251 16.875C92.1911 16.875 91.7138 16.9915 91.2933 17.2244C90.8786 17.4517 90.549 17.7699 90.3047 18.179C90.0661 18.5881 89.9467 19.0597 89.9467 19.5938V27H86.3161ZM101.493 27.2557C100.146 27.2557 98.9872 26.983 98.0156 26.4375C97.0497 25.8864 96.3054 25.108 95.7827 24.1023C95.2599 23.0909 94.9986 21.8949 94.9986 20.5142C94.9986 19.1676 95.2599 17.9858 95.7827 16.9688C96.3054 15.9517 97.0412 15.1591 97.9901 14.5909C98.9446 14.0227 100.064 13.7386 101.348 13.7386C102.212 13.7386 103.016 13.8778 103.76 14.1562C104.51 14.429 105.163 14.8409 105.72 15.392C106.283 15.9432 106.72 16.6364 107.033 17.4716C107.345 18.3011 107.501 19.2727 107.501 20.3864V21.3835H96.4474V19.1335H104.084C104.084 18.6108 103.97 18.1477 103.743 17.7443C103.516 17.3409 103.2 17.0256 102.797 16.7983C102.399 16.5653 101.936 16.4489 101.408 16.4489C100.857 16.4489 100.368 16.5767 99.9418 16.8324C99.5213 17.0824 99.1918 17.4205 98.9531 17.8466C98.7145 18.267 98.5923 18.7358 98.5866 19.2528V21.392C98.5866 22.0398 98.706 22.5994 98.9446 23.071C99.1889 23.5426 99.5327 23.9062 99.9759 24.1619C100.419 24.4176 100.945 24.5455 101.553 24.5455C101.956 24.5455 102.325 24.4886 102.661 24.375C102.996 24.2614 103.283 24.0909 103.521 23.8636C103.76 23.6364 103.942 23.358 104.067 23.0284L107.425 23.25C107.254 24.0568 106.905 24.7614 106.376 25.3636C105.854 25.9602 105.178 26.4261 104.348 26.7614C103.524 27.0909 102.572 27.2557 101.493 27.2557ZM115.837 27.2557C114.49 27.2557 113.331 26.983 112.359 26.4375C111.393 25.8864 110.649 25.108 110.126 24.1023C109.604 23.0909 109.342 21.8949 109.342 20.5142C109.342 19.1676 109.604 17.9858 110.126 16.9688C110.649 15.9517 111.385 15.1591 112.334 14.5909C113.288 14.0227 114.408 13.7386 115.692 13.7386C116.555 13.7386 117.359 13.8778 118.104 14.1562C118.854 14.429 119.507 14.8409 120.064 15.392C120.626 15.9432 121.064 16.6364 121.376 17.4716C121.689 18.3011 121.845 19.2727 121.845 20.3864V21.3835H110.791V19.1335H118.428C118.428 18.6108 118.314 18.1477 118.087 17.7443C117.859 17.3409 117.544 17.0256 117.141 16.7983C116.743 16.5653 116.28 16.4489 115.751 16.4489C115.2 16.4489 114.712 16.5767 114.286 16.8324C113.865 17.0824 113.536 17.4205 113.297 17.8466C113.058 18.267 112.936 18.7358 112.93 19.2528V21.392C112.93 22.0398 113.05 22.5994 113.288 23.071C113.533 23.5426 113.876 23.9062 114.32 24.1619C114.763 24.4176 115.288 24.5455 115.896 24.5455C116.3 24.5455 116.669 24.4886 117.004 24.375C117.339 24.2614 117.626 24.0909 117.865 23.8636C118.104 23.6364 118.286 23.358 118.411 23.0284L121.768 23.25C121.598 24.0568 121.249 24.7614 120.72 25.3636C120.197 25.9602 119.521 26.4261 118.692 26.7614C117.868 27.0909 116.916 27.2557 115.837 27.2557ZM129.038 27.2131C128.044 27.2131 127.143 26.9574 126.337 26.446C125.536 25.929 124.899 25.1705 124.428 24.1705C123.962 23.1648 123.729 21.9318 123.729 20.4716C123.729 18.9716 123.97 17.7244 124.453 16.7301C124.936 15.7301 125.578 14.983 126.379 14.4886C127.186 13.9886 128.07 13.7386 129.03 13.7386C129.763 13.7386 130.374 13.8636 130.862 14.1136C131.357 14.358 131.754 14.6648 132.055 15.0341C132.362 15.3977 132.595 15.7557 132.754 16.108H132.865V9.54545H136.487V27H132.908V24.9034H132.754C132.584 25.267 132.342 25.6278 132.03 25.9858C131.723 26.3381 131.322 26.6307 130.828 26.8636C130.339 27.0966 129.743 27.2131 129.038 27.2131ZM130.189 24.3239C130.774 24.3239 131.268 24.1648 131.672 23.8466C132.081 23.5227 132.393 23.071 132.609 22.4915C132.831 21.9119 132.942 21.233 132.942 20.4545C132.942 19.6761 132.834 19 132.618 18.4261C132.402 17.8523 132.089 17.4091 131.68 17.0966C131.271 16.7841 130.774 16.6278 130.189 16.6278C129.592 16.6278 129.089 16.7898 128.68 17.1136C128.271 17.4375 127.962 17.8864 127.751 18.4602C127.541 19.0341 127.436 19.6989 127.436 20.4545C127.436 21.2159 127.541 21.8892 127.751 22.4744C127.967 23.054 128.277 23.5085 128.68 23.8381C129.089 24.1619 129.592 24.3239 130.189 24.3239ZM150.364 17.642L147.04 17.8466C146.984 17.5625 146.862 17.3068 146.674 17.0795C146.487 16.8466 146.239 16.6619 145.933 16.5256C145.631 16.3835 145.271 16.3125 144.85 16.3125C144.288 16.3125 143.813 16.4318 143.427 16.6705C143.04 16.9034 142.847 17.2159 142.847 17.608C142.847 17.9205 142.972 18.1847 143.222 18.4006C143.472 18.6165 143.901 18.7898 144.509 18.9205L146.879 19.3977C148.151 19.6591 149.1 20.0795 149.725 20.6591C150.35 21.2386 150.663 22 150.663 22.9432C150.663 23.8011 150.41 24.554 149.904 25.2017C149.404 25.8494 148.717 26.3551 147.842 26.7188C146.972 27.0767 145.969 27.2557 144.833 27.2557C143.1 27.2557 141.719 26.8949 140.691 26.1733C139.668 25.446 139.069 24.4574 138.893 23.2074L142.464 23.0199C142.572 23.5483 142.833 23.9517 143.248 24.2301C143.663 24.5028 144.194 24.6392 144.842 24.6392C145.478 24.6392 145.989 24.517 146.376 24.2727C146.768 24.0227 146.967 23.7017 146.972 23.3097C146.967 22.9801 146.827 22.7102 146.555 22.5C146.282 22.2841 145.862 22.1193 145.293 22.0057L143.026 21.554C141.748 21.2983 140.796 20.8551 140.171 20.2244C139.552 19.5937 139.242 18.7898 139.242 17.8125C139.242 16.9716 139.469 16.2472 139.924 15.6392C140.384 15.0312 141.029 14.5625 141.859 14.233C142.694 13.9034 143.671 13.7386 144.79 13.7386C146.444 13.7386 147.745 14.0881 148.694 14.7869C149.648 15.4858 150.205 16.4375 150.364 17.642Z" fill="#22C55E"/>
</svg>
